/* XPM */
static char * xami_xpm[] = {
"32 32 220 2",
"  	c None",
". 	c #7B0004",
"+ 	c #7C0003",
"@ 	c #7F0002",
"# 	c #7F0003",
"$ 	c #800004",
"% 	c #740004",
"& 	c #770001",
"* 	c #840004",
"= 	c #940007",
"- 	c #9D0006",
"; 	c #A80008",
"> 	c #B20009",
", 	c #B90009",
"' 	c #BD0009",
") 	c #C20007",
"! 	c #C3000B",
"~ 	c #7D0003",
"{ 	c #890004",
"] 	c #A20006",
"^ 	c #B50009",
"/ 	c #C20009",
"( 	c #C60009",
"_ 	c #C4000A",
": 	c #C6000A",
"< 	c #960006",
"[ 	c #C40008",
"} 	c #C00007",
"| 	c #C4000C",
"1 	c #C80007",
"2 	c #C30006",
"3 	c #C30008",
"4 	c #BE0007",
"5 	c #C00008",
"6 	c #C10008",
"7 	c #C10009",
"8 	c #C10007",
"9 	c #B50007",
"0 	c #880004",
"a 	c #8B0003",
"b 	c #930005",
"c 	c #B30007",
"d 	c #B10007",
"e 	c #990006",
"f 	c #BF0008",
"g 	c #B60007",
"h 	c #900004",
"i 	c #BF0009",
"j 	c #7E0003",
"k 	c #C00009",
"l 	c #AD0006",
"m 	c #C50008",
"n 	c #BB0008",
"o 	c #B80008",
"p 	c #B90008",
"q 	c #BF0007",
"r 	c #920005",
"s 	c #740002",
"t 	c #9A0004",
"u 	c #C90009",
"v 	c #820004",
"w 	c #8F0005",
"x 	c #CB0009",
"y 	c #AE0007",
"z 	c #C50007",
"A 	c #B40007",
"B 	c #B40008",
"C 	c #B20007",
"D 	c #920004",
"E 	c #790003",
"F 	c #A40007",
"G 	c #C70008",
"H 	c #860005",
"I 	c #A60007",
"J 	c #AD0007",
"K 	c #870004",
"L 	c #9F0007",
"M 	c #CC0008",
"N 	c #B60008",
"O 	c #A10006",
"P 	c #980004",
"Q 	c #8B0004",
"R 	c #990003",
"S 	c #720003",
"T 	c #AF0007",
"U 	c #930006",
"V 	c #830004",
"W 	c #8A0003",
"X 	c #8C0004",
"Y 	c #940006",
"Z 	c #CB0008",
"` 	c #820003",
" .	c #A30006",
"..	c #A50007",
"+.	c #8D0004",
"@.	c #910004",
"#.	c #7C0002",
"$.	c #980006",
"%.	c #C60008",
"&.	c #C20008",
"*.	c #860004",
"=.	c #8C0005",
"-.	c #A30005",
";.	c #970006",
">.	c #7B0002",
",.	c #780004",
"'.	c #AC0006",
").	c #900005",
"!.	c #860003",
"~.	c #840003",
"{.	c #7A0002",
"].	c #9A0006",
"^.	c #C80009",
"/.	c #BA0008",
"(.	c #9B0006",
"_.	c #9A0005",
":.	c #A60006",
"<.	c #A70007",
"[.	c #9C0005",
"}.	c #990004",
"|.	c #C8000A",
"1.	c #960004",
"2.	c #7A0003",
"3.	c #930004",
"4.	c #770002",
"5.	c #CA0009",
"6.	c #B50008",
"7.	c #BC0007",
"8.	c #AD0005",
"9.	c #A40006",
"0.	c #BE0008",
"a.	c #780002",
"b.	c #9D0007",
"c.	c #BC0008",
"d.	c #9D0005",
"e.	c #9B0005",
"f.	c #9F0006",
"g.	c #A30007",
"h.	c #830006",
"i.	c #960005",
"j.	c #9C0004",
"k.	c #C80008",
"l.	c #920006",
"m.	c #950005",
"n.	c #560004",
"o.	c #950006",
"p.	c #B70007",
"q.	c #940004",
"r.	c #8E0005",
"s.	c #C70009",
"t.	c #B00007",
"u.	c #7F0004",
"v.	c #340004",
"w.	c #AC0007",
"x.	c #BD0008",
"y.	c #A70006",
"z.	c #B10008",
"A.	c #A10007",
"B.	c #9C0006",
"C.	c #5E0004",
"D.	c #AB0007",
"E.	c #AA0007",
"F.	c #C90008",
"G.	c #2D0005",
"H.	c #AF0008",
"I.	c #A80007",
"J.	c #7D0002",
"K.	c #B90007",
"L.	c #460008",
"M.	c #2D0004",
"N.	c #8A0005",
"O.	c #A50006",
"P.	c #BD0007",
"Q.	c #B30008",
"R.	c #8D0005",
"S.	c #000002",
"T.	c #000C0E",
"U.	c #520006",
"V.	c #810003",
"W.	c #C40009",
"X.	c #8F0004",
"Y.	c #660003",
"Z.	c #00090B",
"`.	c #690008",
" +	c #BA0007",
".+	c #C30009",
"++	c #810004",
"@+	c #830005",
"#+	c #C30007",
"$+	c #B40006",
"%+	c #790004",
"&+	c #890005",
"*+	c #590007",
"=+	c #BE0009",
"-+	c #B00006",
";+	c #850003",
">+	c #9C0007",
",+	c #C50009",
"'+	c #A00006",
")+	c #980005",
"!+	c #AB0008",
"~+	c #870003",
"{+	c #B20008",
"]+	c #BB0007",
"^+	c #990007",
"/+	c #960003",
"(+	c #9B0004",
"_+	c #C7000A",
":+	c #CA0007",
"<+	c #850004",
"[+	c #9A0007",
"}+	c #970005",
"|+	c #800003",
"1+	c #7E0004",
"2+	c #830003",
"3+	c #570004",
"4+	c #6F0003",
"5+	c #6E0003",
"6+	c #6D0004",
"7+	c #560002",
"                    . + @ # $ $ $ $ # @ + .                     ",
"        % & * = - ; > , ' ) ! ! ! ! ) ' , > ; - = * & %         ",
"    ~ { ] ^ / ( _ :                         : _ ( / ^ ] { ~     ",
"    < [ } |             1 [ 2 3 3 2 [ 1             | } [ <     ",
"  # 4     5 6 7 8 9 0 a b c d d d d c b a 0 9 8 7 6 5     4 #   ",
"  e ( f 4 f 4 f g ~ h i ~ ~ ~ ~ ~ ~ ~ j k h ~ g f 4 f 4 f ( e   ",
"  l m n o p p q r s t u v w w w w w w v x t s r q p p o n m l   ",
"  y z A d B C t D E F G H I J J J J I K G F E D t C B d A z y   ",
"  L M N O P Q e R S T m U V W X X W V Y m T S R e Q P O N Z L   ",
"  `  ...+.+.@.D #.$.5 %.&.F +.K *.=.-.&.%.5 ;.>.D @.+.+... .`   ",
"  ,.Y '.).!.~.{.].f ^./.(._.:.T T <.[.}.o |.f 1.2.~.!.).'.Y ,.  ",
"      3.*.  4.h 5 5. .F y n p c 6.p 7.8.9.O 5.0.Q ,.  *.3.      ",
"            a.o %.I b.c.0.<.d.e.U [.I 0.7.f.g.%.9 ,.            ",
"            ` G o (.7.n [.h.          i.N 0.j.9 k.`             ",
"            l.^.;.9 [ m.        n.      o.&.p.q.k.l.            ",
"            - i r.s.t.u.    v.          _.w.s.D x.-             ",
"            y.z.A.u B.              C.    ;.u <.y y.            ",
"            d D.E.F.o.    v.        G.    i.^.H.I.d             ",
"          J.K.y f.u f.              L.M.  N.^.O.E.K.~           ",
"          j P./.Q ( Q.R.              S.T.U.Z w g P.j           ",
"          V.} W.X.C %.].l.            Y.Z.`. +X .+} ++          ",
"          @+#+3 $+o.0.[ Y r.  %+    &+(.*+=+< -+[ #+@+          ",
"          ;+W.6 m >+e /.,+'.'+)+[.A.!+,+4 j.e m 6 W.;+          ",
"          ~+3 &.&.u }.1.{+]+[ ) 6 3 ]+c ^+/+k.&.&.3 ~+          ",
"          { #+&.&.3 G t.D r _.]  .(+r D y G 3 &.&.#+{           ",
"          K .+#+#+#+#+_+:+K.9.e e  .K.:+_+#+#+#+#+3 K           ",
"          `                                         V.          ",
"          <+[+}+i.i.i.i.i.i.i.i.i.i.i.i.i.i.i.i.}+[+~.          ",
"          ++r b b b b b b b b b b b b b b b b b b r V.          ",
"          |+N.N.N.N.N.N.N.N.N.N.N.N.N.N.N.N.N.N.N.N.|+          ",
"          1+V 2+2+2+2+2+2+2+2+2+2+2+2+2+2+2+2+2+2+V #.          ",
"          3+4+5+5+5+5+6+6+6+6+6+6+6+6+6+6+5+5+5+5+5+7+          "};
